<?xml version="1.0" encoding="utf-8"?>
<!-- Generator: Adobe Illustrator 19.1.0, SVG Export Plug-In . SVG Version: 6.00 Build 0)  -->
<svg version="1.1" id="Ebene_1" xmlns="http://www.w3.org/2000/svg" xmlns:xlink="http://www.w3.org/1999/xlink" width="32px" height="32px"
	 viewBox="-281 404.9 32 32" style="enable-background:new -281 404.9 32 32;" xml:space="preserve">
<style type="text/css">
	.st0{fill:#52658A;}
	.st1{fill:#F98128;stroke:#FFFFFF;stroke-miterlimit:10;}
</style>
<g id="Ebene_2_1_">
	<ellipse class="st0" cx="-265.5" cy="429.7" rx="8" ry="3"/>
</g>
<g>
	<path class="st1" d="M-265.5,407c-4.4,0-7.9,3.5-7.9,7.9c0,1.8,1.1,4.6,3.4,8.8c1.6,2.9,3.2,5.4,3.3,5.5l1.2,1.8l1.2-1.8
		c0.1-0.1,1.7-2.5,3.3-5.5c2.3-4.1,3.4-7,3.4-8.8C-257.6,410.5-261.2,407-265.5,407z M-265.5,418.9c-2.3,0-4.1-1.8-4.1-4.1
		s1.8-4.1,4.1-4.1s4.1,1.8,4.1,4.1S-263.3,418.9-265.5,418.9z"/>
</g>
</svg>
